2015035_C5_03_grf
version=1
nRows=21
nColumns=19
inDegrees=no
endheader
time	ground_force_1_vx	ground_force_1_vy	ground_force_1_vz	ground_force_1_px	ground_force_1_py	ground_force_1_pz	ground_force_1_mx	ground_force_1_my	ground_force_1_mz	ground_force_2_vx	ground_force_2_vy	ground_force_2_vz	ground_force_2_px	ground_force_2_py	ground_force_2_pz	ground_force_2_mx	ground_force_2_my	ground_force_2_mz
      0.80500000	    -47.33734019	    567.45426729	     28.58197577	     -0.11195892	      0.00000000	      0.17815100	      0.00000000	      0.98715789	      0.00000000	      0.00000000	      0.00000000	      0.00000000	      0.00000000	      0.00000000	      0.00000000	      0.00000000	      0.00000000	      0.00000000
      0.80600000	    -46.91678099	    564.72904980	     28.17145139	     -0.11111466	      0.00000000	      0.17813354	      0.00000000	      0.96270381	      0.00000000	      0.00000000	      0.00000000	      0.00000000	      0.00000000	      0.00000000	      0.00000000	      0.00000000	      0.00000000	      0.00000000
      0.80700000	    -46.49736732	    562.09025905	     27.77941637	     -0.11028307	      0.00000000	      0.17811566	      0.00000000	      0.93822180	      0.00000000	      0.00000000	      0.00000000	      0.00000000	      0.00000000	      0.00000000	      0.00000000	      0.00000000	      0.00000000	      0.00000000
      0.80800000	    -46.07857671	    559.52038616	     27.40258276	     -0.10946192	      0.00000000	      0.17809736	      0.00000000	      0.91379518	      0.00000000	      0.00000000	      0.00000000	      0.00000000	      0.00000000	      0.00000000	      0.00000000	      0.00000000	      0.00000000	      0.00000000
      0.80900000	    -45.66019680	    557.03641847	     27.04520524	     -0.10865421	      0.00000000	      0.17807843	      0.00000000	      0.88953192	      0.00000000	      0.00000000	      0.00000000	      0.00000000	      0.00000000	      0.00000000	      0.00000000	      0.00000000	      0.00000000	      0.00000000
      0.81000000	    -45.24184763	    554.62095886	     26.70370862	     -0.10785753	      0.00000000	      0.17805894	      0.00000000	      0.86547261	      0.00000000	      0.00000000	      0.00000000	      0.00000000	      0.00000000	      0.00000000	      0.00000000	      0.00000000	      0.00000000	      0.00000000
      0.81100000	    -44.82319253	    552.29080841	     26.38240010	     -0.10707501	      0.00000000	      0.17803866	      0.00000000	      0.84175436	      0.00000000	      0.00000000	      0.00000000	      0.00000000	      0.00000000	      0.00000000	      0.00000000	      0.00000000	      0.00000000	      0.00000000
      0.81200000	    -44.40401774	    550.02864450	     26.07746646	     -0.10630407	      0.00000000	      0.17801770	      0.00000000	      0.81837597	      0.00000000	      0.00000000	      0.00000000	      0.00000000	      0.00000000	      0.00000000	      0.00000000	      0.00000000	      0.00000000	      0.00000000
      0.81300000	    -43.98389300	    547.85108194	     25.79320930	     -0.10554794	      0.00000000	      0.17799582	      0.00000000	      0.79549819	      0.00000000	      0.00000000	      0.00000000	      0.00000000	      0.00000000	      0.00000000	      0.00000000	      0.00000000	      0.00000000	      0.00000000
      0.81400000	    -43.56277920	    545.74090987	     25.52561313	     -0.10480390	      0.00000000	      0.17797320	      0.00000000	      0.77307989	      0.00000000	      0.00000000	      0.00000000	      0.00000000	      0.00000000	      0.00000000	      0.00000000	      0.00000000	      0.00000000	      0.00000000
      0.81500000	    -43.14015806	    543.71459410	     25.27891472	     -0.10407527	      0.00000000	      0.17794967	      0.00000000	      0.75130381	      0.00000000	      0.00000000	      0.00000000	      0.00000000	      0.00000000	      0.00000000	      0.00000000	      0.00000000	      0.00000000	      0.00000000
      0.81600000	    -42.71612316	    541.75499827	     25.04895329	     -0.10335921	      0.00000000	      0.17792544	      0.00000000	      0.73009218	     -0.00000000	      0.00000000	      0.00000000	      0.00000000	      0.00000000	      0.00000000	      0.00000000	      0.00000000	      0.00000000	      0.00000000
      0.81700000	    -42.29008080	    539.87840191	     24.83986393	     -0.10265910	      0.00000000	      0.17790038	      0.00000000	      0.70964141	      0.00000000	      0.00000000	      0.00000000	      0.00000000	      0.00000000	      0.00000000	      0.00000000	      0.00000000	      0.00000000	      0.00000000
      0.81800000	    -41.86225869	    538.06792945	     24.64739308	     -0.10197199	      0.00000000	      0.17787468	      0.00000000	      0.68983761	      0.00000000	      0.00000000	      0.00000000	      0.00000000	      0.00000000	      0.00000000	      0.00000000	      0.00000000	      0.00000000	      0.00000000
      0.81900000	    -41.43201420	    536.33973002	     24.47553277	     -0.10130135	      0.00000000	      0.17784827	      0.00000000	      0.67088453	      0.00000000	      0.00000000	      0.00000000	      0.00000000	      0.00000000	      0.00000000	      0.00000000	      0.00000000	      0.00000000	      0.00000000
      0.82000000	    -40.99969380	    534.67702121	     24.31998029	     -0.10064410	      0.00000000	      0.17782136	      0.00000000	      0.65263856	      0.00000000	      0.00000000	      0.00000000	      0.00000000	      0.00000000	      0.00000000	      0.00000000	      0.00000000	      0.00000000	      0.00000000
      0.82100000	    -40.56461714	    533.09578449	     24.18453880	     -0.10000380	      0.00000000	      0.17779393	      0.00000000	      0.63530397	      0.00000000	      0.00000000	      0.00000000	      0.00000000	      0.00000000	      0.00000000	      0.00000000	      0.00000000	      0.00000000	      0.00000000
      0.82200000	    -40.12722149	    531.57933056	     24.06492457	     -0.09937716	      0.00000000	      0.17776617	      0.00000000	      0.61871698	      0.00000000	      0.00000000	      0.00000000	      0.00000000	      0.00000000	      0.00000000	      0.00000000	      0.00000000	      0.00000000	      0.00000000
      0.82300000	    -39.68681116	    530.14338017	     23.96471277	     -0.09876781	      0.00000000	      0.17773810	      0.00000000	      0.60307975	      0.00000000	      0.00000000	      0.00000000	      0.00000000	      0.00000000	      0.00000000	      0.00000000	      0.00000000	      0.00000000	      0.00000000
      0.82400000	    -39.24391698	    528.77135575	     23.87967557	     -0.09817234	      0.00000000	      0.17770986	      0.00000000	      0.58821113	      0.00000000	      0.00000000	      0.00000000	      0.00000000	      0.00000000	      0.00000000	      0.00000000	      0.00000000	      0.00000000	      0.00000000
      0.82500000	    -38.79784886	    527.47866139	     23.81312549	     -0.09759433	      0.00000000	      0.17768152	      0.00000000	      0.57430751	      0.00000000	      0.00000000	      0.00000000	      0.00000000	      0.00000000	      0.00000000	      0.00000000	      0.00000000	      0.00000000	      0.00000000
